<svg viewBox="0 0 400 300" xmlns="http://www.w3.org/2000/svg">
  <defs>
    <linearGradient id="vase1" x1="0%" y1="0%" x2="100%" y2="100%">
      <stop offset="0%" style="stop-color:#e8d4c0;stop-opacity:1" />
      <stop offset="100%" style="stop-color:#c9a876;stop-opacity:1" />
    </linearGradient>
    <linearGradient id="vase2" x1="0%" y1="0%" x2="100%" y2="100%">
      <stop offset="0%" style="stop-color:#d4c0d4;stop-opacity:1" />
      <stop offset="100%" style="stop-color:#a876a8;stop-opacity:1" />
    </linearGradient>
    <linearGradient id="vase3" x1="0%" y1="0%" x2="100%" y2="100%">
      <stop offset="0%" style="stop-color:#c0d4e8;stop-opacity:1" />
      <stop offset="100%" style="stop-color:#8a8aff;stop-opacity:1" />
    </linearGradient>
  </defs>
  <rect width="400" height="300" fill="#f5f5f5"/>
  <ellipse cx="80" cy="240" rx="35" ry="15" fill="url(#vase1)"/>
  <path d="M 45 240 Q 45 160 55 140 Q 60 130 80 128 Q 100 130 105 140 Q 115 160 115 240" fill="url(#vase1)" stroke="#999" stroke-width="1"/>
  <ellipse cx="200" cy="240" rx="40" ry="18" fill="url(#vase2)"/>
  <path d="M 160 240 Q 160 150 170 120 Q 175 105 200 100 Q 225 105 230 120 Q 240 150 240 240" fill="url(#vase2)" stroke="#999" stroke-width="1"/>
  <ellipse cx="320" cy="240" rx="35" ry="15" fill="url(#vase3)"/>
  <path d="M 285 240 Q 285 170 295 145 Q 300 135 320 133 Q 340 135 345 145 Q 355 170 355 240" fill="url(#vase3)" stroke="#999" stroke-width="1"/>
  <text x="200" y="280" font-size="14" text-anchor="middle" fill="#666">Ceramic Vases</text>
</svg>
